<?xml version="1.0" standalone="no"?>
<!DOCTYPE svg PUBLIC "-//W3C//DTD SVG 20010904//EN"
 "http://www.w3.org/TR/2001/REC-SVG-20010904/DTD/svg10.dtd">
<svg version="1.0" xmlns="http://www.w3.org/2000/svg"
 width="120.000000pt" height="120.000000pt" viewBox="0 0 120.000000 120.000000"
 preserveAspectRatio="xMidYMid meet">
<metadata>
Created by potrace 1.14, written by Peter Selinger 2001-2017
</metadata>
<g transform="translate(0.000000,120.000000) scale(0.100000,-0.100000)"
fill="#000000" stroke="none">
<path d="M241 1182 c-19 -9 -44 -30 -55 -45 -21 -28 -21 -38 -21 -537 0 -499
0 -509 21 -537 46 -62 50 -63 472 -63 l382 0 0 600 0 600 -382 0 c-345 0 -386
-2 -417 -18z m639 -662 l0 -350 -235 0 -235 0 0 350 0 350 235 0 235 0 0 -350z"/>
<path d="M600 526 c0 -35 -3 -71 -6 -80 -8 -20 -43 -21 -50 -1 -7 18 -34 20
-34 2 0 -34 71 -52 98 -25 15 15 17 168 2 168 -6 0 -10 -28 -10 -64z"/>
<path d="M665 566 c-22 -33 -9 -55 42 -77 32 -14 44 -24 41 -36 -4 -24 -56
-30 -64 -9 -7 17 -34 22 -34 7 0 -37 84 -55 114 -25 30 30 15 61 -41 85 -32
14 -44 24 -41 36 5 26 43 28 66 3 24 -26 37 -12 16 18 -22 31 -78 30 -99 -2z"/>
</g>
</svg>
