<svg width="256" height="256" viewBox="0 0 256 256" fill="none" xmlns="http://www.w3.org/2000/svg">
<path d="M64 12V224H40V32C40 26.6957 42.1071 21.6086 45.8579 17.8579C49.6086 14.1071 54.6957 12 60 12H64Z" fill="#E84545"/>
<path d="M64 12H216V204H64V12Z" fill="#F5DE19"/>
<path d="M64 216H212V232H64V216Z" fill="#E0E0E2"/>
<path d="M64 216V232H216V244H60C54.6957 244 49.6086 241.893 45.8579 238.142C42.1071 234.391 40 229.304 40 224C40 218.696 42.1071 213.609 45.8579 209.858C49.6086 206.107 54.6957 204 60 204H216V216H64Z" fill="#CF3434"/>
<path d="M64 216H212V220H64V216Z" fill="#C6C5CA"/>
<path d="M178.421 173.97C179.222 175.816 180.467 177.368 182.013 178.446C183.558 179.525 185.341 180.086 187.155 180.065C190.817 180.065 193.158 177.989 193.158 175.113C193.158 171.684 190.753 170.457 186.722 168.457L184.511 167.383C178.129 164.301 173.896 160.441 173.896 152.281C173.896 144.764 178.935 139.038 186.839 139.038C189.398 138.829 191.955 139.478 194.19 140.906C196.426 142.333 198.241 144.476 199.41 147.066L192.5 152.075C192.05 150.791 191.266 149.692 190.253 148.925C189.239 148.158 188.044 147.757 186.826 147.778C186.294 147.718 185.757 147.784 185.25 147.971C184.742 148.159 184.274 148.465 183.876 148.87C183.478 149.274 183.159 149.768 182.939 150.32C182.718 150.872 182.602 151.47 182.596 152.075C182.596 155.081 184.239 156.3 188.032 158.171L190.242 159.245C197.754 162.899 202 166.621 202 174.991C202 184.016 195.748 188.961 187.353 188.961C184.082 189.197 180.821 188.355 177.963 186.536C175.104 184.717 172.771 181.999 171.245 178.709L178.421 173.97ZM147.196 174.838C148.583 177.631 149.846 179.993 152.883 179.993C155.786 179.993 157.62 178.705 157.62 173.695V139.61H166.458V173.829C166.458 184.206 161.083 188.931 153.259 188.931C150.494 189.102 147.747 188.32 145.381 186.688C143.014 185.057 141.138 182.651 140 179.787L147.196 174.838Z" fill="black"/>
<rect x="64" y="12" width="11" height="192" fill="#E3CF19"/>
</svg>
