<svg width="100" height="120" viewBox="0 0 100 120" fill="none" xmlns="http://www.w3.org/2000/svg">
<path d="M0 14C0 6.26801 6.26801 0 14 0H88.2353V120H14C6.268 120 0 113.732 0 106V14Z" fill="#E84545"/>
<rect x="18.6275" y="28" width="69.6078" height="81" fill="black"/>
<path d="M9.80392 14C9.80392 11.7909 11.5948 10 13.8039 10H88.2353V20H13.8039C11.5948 20 9.80392 18.2091 9.80392 16V14Z" fill="black"/>
<rect x="78.4314" y="28" width="9.80392" height="81" fill="#E84545"/>
<path d="M24.5098 33H72.549V103H24.5098V33Z" fill="#F5DF12"/>
<path d="M43.8141 61.2266H46.1239V73.812C46.1239 75.5129 45.6213 76.8434 44.616 77.8037C43.6187 78.764 42.2863 79.2441 40.6188 79.2441C38.8875 79.2441 37.5391 78.7925 36.5737 77.8892C35.6083 76.9858 35.1256 75.7204 35.1256 74.0928H37.4234C37.4234 75.11 37.6947 75.9035 38.2372 76.4731C38.7877 77.0428 39.5816 77.3276 40.6188 77.3276C41.5682 77.3276 42.3341 77.0225 42.9166 76.4121C43.507 75.8018 43.8062 74.9473 43.8141 73.8486V61.2266Z" fill="black"/>
<path d="M55.1715 71.0776C53.2008 70.4998 51.7647 69.7918 50.8631 68.9536C49.9695 68.1073 49.5227 67.0656 49.5227 65.8286C49.5227 64.4289 50.0693 63.2733 51.1623 62.3618C52.2633 61.4422 53.6915 60.9824 55.4467 60.9824C56.6435 60.9824 57.7086 61.2184 58.6421 61.6904C59.5836 62.1624 60.3096 62.8135 60.8202 63.6436C61.3388 64.4736 61.5981 65.381 61.5981 66.3657H59.2884C59.2884 65.2915 58.9533 64.4492 58.2831 63.8389C57.6129 63.2204 56.6674 62.9111 55.4467 62.9111C54.3138 62.9111 53.4282 63.1675 52.7899 63.6802C52.1596 64.1847 51.8445 64.8887 51.8445 65.792C51.8445 66.5163 52.1436 67.1307 52.742 67.6353C53.3484 68.1317 54.3736 68.5874 55.8177 69.0024C57.2698 69.4175 58.4027 69.8773 59.2165 70.3818C60.0383 70.8783 60.6447 71.4601 61.0356 72.1274C61.4346 72.7948 61.634 73.5801 61.634 74.4834C61.634 75.9238 61.0835 77.0794 59.9825 77.9502C58.8815 78.8128 57.4094 79.2441 55.5664 79.2441C54.3696 79.2441 53.2527 79.0122 52.2155 78.5483C51.1783 78.0763 50.3764 77.4334 49.81 76.6196C49.2515 75.8058 48.9722 74.8822 48.9722 73.8486H51.282C51.282 74.9229 51.6689 75.7733 52.4428 76.3999C53.2247 77.0184 54.2659 77.3276 55.5664 77.3276C56.7791 77.3276 57.7086 77.0754 58.3549 76.5708C59.0011 76.0662 59.3243 75.3786 59.3243 74.5078C59.3243 73.637 59.0251 72.9657 58.4267 72.4937C57.8283 72.0135 56.7432 71.5415 55.1715 71.0776Z" fill="black"/>
</svg>
