<?xml version="1.0" standalone="no"?>
<!DOCTYPE svg PUBLIC "-//W3C//DTD SVG 20010904//EN"
 "http://www.w3.org/TR/2001/REC-SVG-20010904/DTD/svg10.dtd">
<svg version="1.0" xmlns="http://www.w3.org/2000/svg"
 width="256.000000pt" height="256.000000pt" viewBox="0 0 256.000000 256.000000"
 preserveAspectRatio="xMidYMid meet">
<metadata>
Created by potrace 1.14, written by Peter Selinger 2001-2017
</metadata>
<g transform="translate(0.000000,256.000000) scale(0.100000,-0.100000)"
fill="#000000" stroke="none">
<path d="M533 2428 c-47 -15 -110 -79 -122 -124 -8 -27 -11 -352 -11 -1034 l1
-995 23 -45 c13 -26 41 -58 65 -75 l43 -30 814 -3 814 -3 0 61 c0 53 -2 60
-20 60 -18 0 -20 7 -20 80 0 73 2 80 20 80 20 0 20 7 20 1020 l0 1020 -797 -1
c-521 -1 -809 -5 -830 -11z"/>
</g>
</svg>
